<?xml version="1.0" standalone="no"?>
<!DOCTYPE svg PUBLIC "-//W3C//DTD SVG 20010904//EN"
 "http://www.w3.org/TR/2001/REC-SVG-20010904/DTD/svg10.dtd">
<svg version="1.0" xmlns="http://www.w3.org/2000/svg"
 width="512.000000pt" height="512.000000pt" viewBox="0 0 512.000000 512.000000"
 preserveAspectRatio="xMidYMid meet">
<metadata>
Created by potrace 1.11, written by Peter Selinger 2001-2013
</metadata>
<g transform="translate(0.000000,512.000000) scale(0.100000,-0.100000)"
fill="#000000" stroke="none">
<path d="M2378 5116 c-1 -2 -34 -6 -73 -10 -38 -3 -97 -10 -130 -16 -33 -6
-76 -13 -95 -16 -19 -3 -51 -9 -70 -14 -19 -5 -46 -11 -60 -14 -58 -11 -232
-66 -320 -101 -106 -42 -339 -156 -381 -186 -15 -10 -30 -19 -33 -19 -10 0
-217 -149 -276 -199 -122 -102 -279 -258 -360 -358 -76 -93 -230 -317 -230
-333 0 -6 -5 -10 -12 -10 -6 0 -8 -3 -5 -7 4 -3 3 -11 -2 -17 -65 -80 -240
-525 -264 -671 -3 -17 -8 -41 -11 -55 -44 -187 -65 -557 -44 -780 15 -161 63
-384 114 -542 14 -43 22 -83 18 -89 -4 -7 -3 -9 3 -6 5 3 22 -26 38 -66 56
-146 144 -313 242 -460 100 -151 190 -262 314 -386 382 -384 874 -640 1394
-725 256 -42 586 -43 840 -2 674 109 1296 502 1687 1067 72 104 168 264 168
280 0 6 5 7 12 3 6 -4 8 -3 4 4 -3 6 2 26 12 44 24 43 106 241 121 293 7 22
17 49 22 60 10 23 65 242 73 295 3 19 8 49 11 65 24 140 29 216 30 410 0 227
-10 339 -50 530 -24 119 -77 302 -110 380 -6 17 -25 62 -41 100 -16 39 -50
111 -76 160 -26 50 -56 106 -65 125 -10 19 -20 37 -23 40 -3 3 -21 30 -40 60
-193 307 -504 607 -845 812 -63 38 -299 158 -310 158 -4 0 -21 6 -38 14 -93
43 -368 123 -477 140 -19 3 -44 8 -56 10 -12 2 -45 7 -74 11 -29 4 -62 9 -74
12 -23 5 -452 13 -458 9z"/>
</g>
</svg>
